<svg width="342" height="81" viewBox="0 0 342 81" fill="none" xmlns="http://www.w3.org/2000/svg">
<g filter="url(#filter0_ddi_1_41)">
<path d="M-19.0202 39.9097L-13.526 40.1624C-13.2502 40.1751 -13.0369 40.409 -13.0495 40.6849C-13.0876 41.5124 -12.4476 42.2141 -11.62 42.2522L23.343 43.8602C24.1706 43.8982 24.8723 43.2582 24.9103 42.4307C24.923 42.1548 25.1569 41.9415 25.4328 41.9542L30.927 42.2069C32.0304 42.2576 32.8837 43.1932 32.833 44.2966C32.63 48.7103 28.8875 52.1236 24.4739 51.9207L-13.486 50.1748C-17.8996 49.9718 -21.313 46.2293 -21.11 41.8157C-21.0593 40.7123 -20.1236 39.859 -19.0202 39.9097ZM21.8964 31.781L72.8426 34.1241C73.6701 34.1621 74.3101 34.8638 74.2721 35.6914L74.0424 40.6861C74.0043 41.5137 73.3026 42.1537 72.475 42.1156L21.5289 39.7725C20.7013 39.7345 20.0613 39.0327 20.0994 38.2052L20.3291 33.2105C20.3672 32.3829 21.0689 31.7429 21.8964 31.781ZM-12.0158 18.2086L25.944 19.9544C30.3577 20.1574 33.771 23.8999 33.5681 28.3135C33.5173 29.4169 32.5817 30.2703 31.4783 30.2195L25.9841 29.9669C25.7082 29.9542 25.4949 29.7203 25.5076 29.4444C25.5456 28.6169 24.9056 27.9151 24.0781 27.8771L-10.885 26.2691C-11.7125 26.231 -12.4142 26.871 -12.4523 27.6986C-12.465 27.9744 -12.6989 28.1878 -12.9747 28.1751L-18.4689 27.9224C-19.5723 27.8717 -20.4257 26.936 -20.3749 25.8326L-20.3453 25.4214C-19.9368 21.209 -16.2914 18.012 -12.0158 18.2086Z" fill="#904EB1" style="fill:#904EB1;fill:color(display-p3 0.5630 0.3043 0.6924);fill-opacity:1;"/>
<path d="M-19.0202 39.9097L-13.526 40.1624C-13.2502 40.1751 -13.0369 40.409 -13.0495 40.6849C-13.0876 41.5124 -12.4476 42.2141 -11.62 42.2522L23.343 43.8602C24.1706 43.8982 24.8723 43.2582 24.9103 42.4307C24.923 42.1548 25.1569 41.9415 25.4328 41.9542L30.927 42.2069C32.0304 42.2576 32.8837 43.1932 32.833 44.2966C32.63 48.7103 28.8875 52.1236 24.4739 51.9207L-13.486 50.1748C-17.8996 49.9718 -21.313 46.2293 -21.11 41.8157C-21.0593 40.7123 -20.1236 39.859 -19.0202 39.9097ZM21.8964 31.781L72.8426 34.1241C73.6701 34.1621 74.3101 34.8638 74.2721 35.6914L74.0424 40.6861C74.0043 41.5137 73.3026 42.1537 72.475 42.1156L21.5289 39.7725C20.7013 39.7345 20.0613 39.0327 20.0994 38.2052L20.3291 33.2105C20.3672 32.3829 21.0689 31.7429 21.8964 31.781ZM-12.0158 18.2086L25.944 19.9544C30.3577 20.1574 33.771 23.8999 33.5681 28.3135C33.5173 29.4169 32.5817 30.2703 31.4783 30.2195L25.9841 29.9669C25.7082 29.9542 25.4949 29.7203 25.5076 29.4444C25.5456 28.6169 24.9056 27.9151 24.0781 27.8771L-10.885 26.2691C-11.7125 26.231 -12.4142 26.871 -12.4523 27.6986C-12.465 27.9744 -12.6989 28.1878 -12.9747 28.1751L-18.4689 27.9224C-19.5723 27.8717 -20.4257 26.936 -20.3749 25.8326L-20.3453 25.4214C-19.9368 21.209 -16.2914 18.012 -12.0158 18.2086Z" fill="url(#paint0_linear_1_41)" fill-opacity="0.2"/>
<path d="M-19.0202 39.9097L-13.526 40.1624C-13.2502 40.1751 -13.0369 40.409 -13.0495 40.6849C-13.0876 41.5124 -12.4476 42.2141 -11.62 42.2522L23.343 43.8602C24.1706 43.8982 24.8723 43.2582 24.9103 42.4307C24.923 42.1548 25.1569 41.9415 25.4328 41.9542L30.927 42.2069C32.0304 42.2576 32.8837 43.1932 32.833 44.2966C32.63 48.7103 28.8875 52.1236 24.4739 51.9207L-13.486 50.1748C-17.8996 49.9718 -21.313 46.2293 -21.11 41.8157C-21.0593 40.7123 -20.1236 39.859 -19.0202 39.9097ZM21.8964 31.781L72.8426 34.1241C73.6701 34.1621 74.3101 34.8638 74.2721 35.6914L74.0424 40.6861C74.0043 41.5137 73.3026 42.1537 72.475 42.1156L21.5289 39.7725C20.7013 39.7345 20.0613 39.0327 20.0994 38.2052L20.3291 33.2105C20.3672 32.3829 21.0689 31.7429 21.8964 31.781ZM-12.0158 18.2086L25.944 19.9544C30.3577 20.1574 33.771 23.8999 33.5681 28.3135C33.5173 29.4169 32.5817 30.2703 31.4783 30.2195L25.9841 29.9669C25.7082 29.9542 25.4949 29.7203 25.5076 29.4444C25.5456 28.6169 24.9056 27.9151 24.0781 27.8771L-10.885 26.2691C-11.7125 26.231 -12.4142 26.871 -12.4523 27.6986C-12.465 27.9744 -12.6989 28.1878 -12.9747 28.1751L-18.4689 27.9224C-19.5723 27.8717 -20.4257 26.936 -20.3749 25.8326L-20.3453 25.4214C-19.9368 21.209 -16.2914 18.012 -12.0158 18.2086Z" fill="url(#paint1_linear_1_41)" fill-opacity="0.2"/>
<path d="M-19.0202 39.9097L-13.526 40.1624C-13.2502 40.1751 -13.0369 40.409 -13.0495 40.6849C-13.0876 41.5124 -12.4476 42.2141 -11.62 42.2522L23.343 43.8602C24.1706 43.8982 24.8723 43.2582 24.9103 42.4307C24.923 42.1548 25.1569 41.9415 25.4328 41.9542L30.927 42.2069C32.0304 42.2576 32.8837 43.1932 32.833 44.2966C32.63 48.7103 28.8875 52.1236 24.4739 51.9207L-13.486 50.1748C-17.8996 49.9718 -21.313 46.2293 -21.11 41.8157C-21.0593 40.7123 -20.1236 39.859 -19.0202 39.9097ZM21.8964 31.781L72.8426 34.1241C73.6701 34.1621 74.3101 34.8638 74.2721 35.6914L74.0424 40.6861C74.0043 41.5137 73.3026 42.1537 72.475 42.1156L21.5289 39.7725C20.7013 39.7345 20.0613 39.0327 20.0994 38.2052L20.3291 33.2105C20.3672 32.3829 21.0689 31.7429 21.8964 31.781ZM-12.0158 18.2086L25.944 19.9544C30.3577 20.1574 33.771 23.8999 33.5681 28.3135C33.5173 29.4169 32.5817 30.2703 31.4783 30.2195L25.9841 29.9669C25.7082 29.9542 25.4949 29.7203 25.5076 29.4444C25.5456 28.6169 24.9056 27.9151 24.0781 27.8771L-10.885 26.2691C-11.7125 26.231 -12.4142 26.871 -12.4523 27.6986C-12.465 27.9744 -12.6989 28.1878 -12.9747 28.1751L-18.4689 27.9224C-19.5723 27.8717 -20.4257 26.936 -20.3749 25.8326L-20.3453 25.4214C-19.9368 21.209 -16.2914 18.012 -12.0158 18.2086Z" stroke="url(#paint2_linear_1_41)"/>
<path d="M144.354 41.5813L149.852 41.7306C150.128 41.7381 150.346 41.9679 150.338 42.244C150.316 43.0721 150.969 43.7616 151.797 43.7841L186.784 44.7342C187.612 44.7567 188.302 44.1036 188.324 43.2754C188.332 42.9994 188.561 42.7817 188.838 42.7892L194.335 42.9385C195.44 42.9685 196.31 43.8879 196.28 44.992C196.161 49.4087 192.483 52.8919 188.066 52.7719L150.08 51.7405C145.664 51.6205 142.18 47.9429 142.3 43.5262C142.33 42.4221 143.25 41.5513 144.354 41.5813ZM185.11 32.6843L236.092 34.0687C236.92 34.0912 237.573 34.7807 237.55 35.6088L237.415 40.607C237.392 41.4351 236.703 42.0882 235.874 42.0657L184.893 40.6814C184.065 40.6589 183.412 39.9693 183.435 39.1412L183.57 34.143C183.593 33.3149 184.282 32.6618 185.11 32.6843ZM150.949 19.7522L188.935 20.7837C193.352 20.9037 196.835 24.5813 196.715 28.9979C196.685 30.1021 195.765 30.9729 194.661 30.9429L189.163 30.7936C188.887 30.7861 188.67 30.5563 188.677 30.2802C188.699 29.4521 188.046 28.7626 187.218 28.7401L152.231 27.79C151.403 27.7675 150.713 28.4206 150.691 29.2487C150.684 29.5248 150.454 29.7425 150.178 29.735L144.68 29.5857C143.575 29.5557 142.705 28.6363 142.735 27.5321L142.757 27.1205C143.086 22.9011 146.67 19.6361 150.949 19.7522Z" fill="#904EB1" style="fill:#904EB1;fill:color(display-p3 0.5630 0.3043 0.6924);fill-opacity:1;"/>
<path d="M144.354 41.5813L149.852 41.7306C150.128 41.7381 150.346 41.9679 150.338 42.244C150.316 43.0721 150.969 43.7616 151.797 43.7841L186.784 44.7342C187.612 44.7567 188.302 44.1036 188.324 43.2754C188.332 42.9994 188.561 42.7817 188.838 42.7892L194.335 42.9385C195.44 42.9685 196.31 43.8879 196.28 44.992C196.161 49.4087 192.483 52.8919 188.066 52.7719L150.08 51.7405C145.664 51.6205 142.18 47.9429 142.3 43.5262C142.33 42.4221 143.25 41.5513 144.354 41.5813ZM185.11 32.6843L236.092 34.0687C236.92 34.0912 237.573 34.7807 237.55 35.6088L237.415 40.607C237.392 41.4351 236.703 42.0882 235.874 42.0657L184.893 40.6814C184.065 40.6589 183.412 39.9693 183.435 39.1412L183.57 34.143C183.593 33.3149 184.282 32.6618 185.11 32.6843ZM150.949 19.7522L188.935 20.7837C193.352 20.9037 196.835 24.5813 196.715 28.9979C196.685 30.1021 195.765 30.9729 194.661 30.9429L189.163 30.7936C188.887 30.7861 188.67 30.5563 188.677 30.2802C188.699 29.4521 188.046 28.7626 187.218 28.7401L152.231 27.79C151.403 27.7675 150.713 28.4206 150.691 29.2487C150.684 29.5248 150.454 29.7425 150.178 29.735L144.68 29.5857C143.575 29.5557 142.705 28.6363 142.735 27.5321L142.757 27.1205C143.086 22.9011 146.67 19.6361 150.949 19.7522Z" fill="url(#paint3_linear_1_41)" fill-opacity="0.2"/>
<path d="M144.354 41.5813L149.852 41.7306C150.128 41.7381 150.346 41.9679 150.338 42.244C150.316 43.0721 150.969 43.7616 151.797 43.7841L186.784 44.7342C187.612 44.7567 188.302 44.1036 188.324 43.2754C188.332 42.9994 188.561 42.7817 188.838 42.7892L194.335 42.9385C195.44 42.9685 196.31 43.8879 196.28 44.992C196.161 49.4087 192.483 52.8919 188.066 52.7719L150.08 51.7405C145.664 51.6205 142.18 47.9429 142.3 43.5262C142.33 42.4221 143.25 41.5513 144.354 41.5813ZM185.11 32.6843L236.092 34.0687C236.92 34.0912 237.573 34.7807 237.55 35.6088L237.415 40.607C237.392 41.4351 236.703 42.0882 235.874 42.0657L184.893 40.6814C184.065 40.6589 183.412 39.9693 183.435 39.1412L183.57 34.143C183.593 33.3149 184.282 32.6618 185.11 32.6843ZM150.949 19.7522L188.935 20.7837C193.352 20.9037 196.835 24.5813 196.715 28.9979C196.685 30.1021 195.765 30.9729 194.661 30.9429L189.163 30.7936C188.887 30.7861 188.67 30.5563 188.677 30.2802C188.699 29.4521 188.046 28.7626 187.218 28.7401L152.231 27.79C151.403 27.7675 150.713 28.4206 150.691 29.2487C150.684 29.5248 150.454 29.7425 150.178 29.735L144.68 29.5857C143.575 29.5557 142.705 28.6363 142.735 27.5321L142.757 27.1205C143.086 22.9011 146.67 19.6361 150.949 19.7522Z" fill="url(#paint4_linear_1_41)" fill-opacity="0.2"/>
<path d="M144.354 41.5813L149.852 41.7306C150.128 41.7381 150.346 41.9679 150.338 42.244C150.316 43.0721 150.969 43.7616 151.797 43.7841L186.784 44.7342C187.612 44.7567 188.302 44.1036 188.324 43.2754C188.332 42.9994 188.561 42.7817 188.838 42.7892L194.335 42.9385C195.44 42.9685 196.31 43.8879 196.28 44.992C196.161 49.4087 192.483 52.8919 188.066 52.7719L150.08 51.7405C145.664 51.6205 142.18 47.9429 142.3 43.5262C142.33 42.4221 143.25 41.5513 144.354 41.5813ZM185.11 32.6843L236.092 34.0687C236.92 34.0912 237.573 34.7807 237.55 35.6088L237.415 40.607C237.392 41.4351 236.703 42.0882 235.874 42.0657L184.893 40.6814C184.065 40.6589 183.412 39.9693 183.435 39.1412L183.57 34.143C183.593 33.3149 184.282 32.6618 185.11 32.6843ZM150.949 19.7522L188.935 20.7837C193.352 20.9037 196.835 24.5813 196.715 28.9979C196.685 30.1021 195.765 30.9729 194.661 30.9429L189.163 30.7936C188.887 30.7861 188.67 30.5563 188.677 30.2802C188.699 29.4521 188.046 28.7626 187.218 28.7401L152.231 27.79C151.403 27.7675 150.713 28.4206 150.691 29.2487C150.684 29.5248 150.454 29.7425 150.178 29.735L144.68 29.5857C143.575 29.5557 142.705 28.6363 142.735 27.5321L142.757 27.1205C143.086 22.9011 146.67 19.6361 150.949 19.7522Z" stroke="url(#paint5_linear_1_41)"/>
<path d="M62.6754 44.0244L68.1734 43.8784C68.4495 43.8711 68.6792 44.0889 68.6865 44.3649C68.7085 45.1931 69.3977 45.8466 70.2258 45.8246L105.213 44.8953C106.042 44.8734 106.695 44.1842 106.673 43.3561C106.666 43.08 106.884 42.8503 107.16 42.843L112.658 42.6969C113.762 42.6676 114.681 43.5389 114.71 44.6431C114.827 49.0598 111.342 52.7354 106.925 52.8527L68.9387 53.8616C64.522 53.9789 60.8465 50.4935 60.7292 46.0768C60.6998 44.9726 61.5712 44.0537 62.6754 44.0244ZM102.896 32.9527L153.878 31.5986C154.706 31.5766 155.395 32.2301 155.417 33.0583L155.55 38.0565C155.572 38.8847 154.918 39.5738 154.09 39.5958L103.108 40.9499C102.28 40.9719 101.591 40.3183 101.569 39.4902L101.436 34.492C101.414 33.6638 102.067 32.9747 102.896 32.9527ZM68.0891 21.8729L106.076 20.864C110.492 20.7467 114.168 24.232 114.285 28.6488C114.315 29.7529 113.443 30.6718 112.339 30.7012L106.841 30.8472C106.565 30.8545 106.335 30.6367 106.328 30.3606C106.306 29.5325 105.617 28.879 104.789 28.901L69.801 29.8302C68.9729 29.8522 68.3194 30.5414 68.3414 31.3695C68.3487 31.6456 68.1309 31.8753 67.8548 31.8826L62.3568 32.0286C61.2526 32.058 60.3337 31.1866 60.3044 30.0825L60.3042 29.6702C60.4064 25.4393 63.8106 21.9865 68.0891 21.8729Z" fill="#904EB1" style="fill:#904EB1;fill:color(display-p3 0.5630 0.3043 0.6924);fill-opacity:1;"/>
<path d="M62.6754 44.0244L68.1734 43.8784C68.4495 43.8711 68.6792 44.0889 68.6865 44.3649C68.7085 45.1931 69.3977 45.8466 70.2258 45.8246L105.213 44.8953C106.042 44.8734 106.695 44.1842 106.673 43.3561C106.666 43.08 106.884 42.8503 107.16 42.843L112.658 42.6969C113.762 42.6676 114.681 43.5389 114.71 44.6431C114.827 49.0598 111.342 52.7354 106.925 52.8527L68.9387 53.8616C64.522 53.9789 60.8465 50.4935 60.7292 46.0768C60.6998 44.9726 61.5712 44.0537 62.6754 44.0244ZM102.896 32.9527L153.878 31.5986C154.706 31.5766 155.395 32.2301 155.417 33.0583L155.55 38.0565C155.572 38.8847 154.918 39.5738 154.09 39.5958L103.108 40.9499C102.28 40.9719 101.591 40.3183 101.569 39.4902L101.436 34.492C101.414 33.6638 102.067 32.9747 102.896 32.9527ZM68.0891 21.8729L106.076 20.864C110.492 20.7467 114.168 24.232 114.285 28.6488C114.315 29.7529 113.443 30.6718 112.339 30.7012L106.841 30.8472C106.565 30.8545 106.335 30.6367 106.328 30.3606C106.306 29.5325 105.617 28.879 104.789 28.901L69.801 29.8302C68.9729 29.8522 68.3194 30.5414 68.3414 31.3695C68.3487 31.6456 68.1309 31.8753 67.8548 31.8826L62.3568 32.0286C61.2526 32.058 60.3337 31.1866 60.3044 30.0825L60.3042 29.6702C60.4064 25.4393 63.8106 21.9865 68.0891 21.8729Z" fill="url(#paint6_linear_1_41)" fill-opacity="0.2"/>
<path d="M62.6754 44.0244L68.1734 43.8784C68.4495 43.8711 68.6792 44.0889 68.6865 44.3649C68.7085 45.1931 69.3977 45.8466 70.2258 45.8246L105.213 44.8953C106.042 44.8734 106.695 44.1842 106.673 43.3561C106.666 43.08 106.884 42.8503 107.16 42.843L112.658 42.6969C113.762 42.6676 114.681 43.5389 114.71 44.6431C114.827 49.0598 111.342 52.7354 106.925 52.8527L68.9387 53.8616C64.522 53.9789 60.8465 50.4935 60.7292 46.0768C60.6998 44.9726 61.5712 44.0537 62.6754 44.0244ZM102.896 32.9527L153.878 31.5986C154.706 31.5766 155.395 32.2301 155.417 33.0583L155.55 38.0565C155.572 38.8847 154.918 39.5738 154.09 39.5958L103.108 40.9499C102.28 40.9719 101.591 40.3183 101.569 39.4902L101.436 34.492C101.414 33.6638 102.067 32.9747 102.896 32.9527ZM68.0891 21.8729L106.076 20.864C110.492 20.7467 114.168 24.232 114.285 28.6488C114.315 29.7529 113.443 30.6718 112.339 30.7012L106.841 30.8472C106.565 30.8545 106.335 30.6367 106.328 30.3606C106.306 29.5325 105.617 28.879 104.789 28.901L69.801 29.8302C68.9729 29.8522 68.3194 30.5414 68.3414 31.3695C68.3487 31.6456 68.1309 31.8753 67.8548 31.8826L62.3568 32.0286C61.2526 32.058 60.3337 31.1866 60.3044 30.0825L60.3042 29.6702C60.4064 25.4393 63.8106 21.9865 68.0891 21.8729Z" fill="url(#paint7_linear_1_41)" fill-opacity="0.2"/>
<path d="M62.6754 44.0244L68.1734 43.8784C68.4495 43.8711 68.6792 44.0889 68.6865 44.3649C68.7085 45.1931 69.3977 45.8466 70.2258 45.8246L105.213 44.8953C106.042 44.8734 106.695 44.1842 106.673 43.3561C106.666 43.08 106.884 42.8503 107.16 42.843L112.658 42.6969C113.762 42.6676 114.681 43.5389 114.71 44.6431C114.827 49.0598 111.342 52.7354 106.925 52.8527L68.9387 53.8616C64.522 53.9789 60.8465 50.4935 60.7292 46.0768C60.6998 44.9726 61.5712 44.0537 62.6754 44.0244ZM102.896 32.9527L153.878 31.5986C154.706 31.5766 155.395 32.2301 155.417 33.0583L155.55 38.0565C155.572 38.8847 154.918 39.5738 154.09 39.5958L103.108 40.9499C102.28 40.9719 101.591 40.3183 101.569 39.4902L101.436 34.492C101.414 33.6638 102.067 32.9747 102.896 32.9527ZM68.0891 21.8729L106.076 20.864C110.492 20.7467 114.168 24.232 114.285 28.6488C114.315 29.7529 113.443 30.6718 112.339 30.7012L106.841 30.8472C106.565 30.8545 106.335 30.6367 106.328 30.3606C106.306 29.5325 105.617 28.879 104.789 28.901L69.801 29.8302C68.9729 29.8522 68.3194 30.5414 68.3414 31.3695C68.3487 31.6456 68.1309 31.8753 67.8548 31.8826L62.3568 32.0286C61.2526 32.058 60.3337 31.1866 60.3044 30.0825L60.3042 29.6702C60.4064 25.4393 63.8106 21.9865 68.0891 21.8729Z" stroke="url(#paint8_linear_1_41)"/>
<path d="M226.608 43.5892L232.107 43.4959C232.384 43.4913 232.611 43.7113 232.616 43.9874C232.63 44.8157 233.313 45.4758 234.141 45.4617L269.136 44.8683C269.964 44.8542 270.624 44.1713 270.61 43.343C270.606 43.0669 270.826 42.8393 271.102 42.8346L276.601 42.7414C277.705 42.7226 278.616 43.6028 278.635 44.7072C278.71 49.1248 275.189 52.7668 270.772 52.8417L232.777 53.486C228.359 53.5609 224.717 50.0405 224.642 45.6228C224.624 44.5184 225.504 43.6079 226.608 43.5892ZM266.933 32.9039L317.926 32.0391C318.754 32.0251 319.437 32.6852 319.451 33.5135L319.536 38.5127C319.55 39.3411 318.89 40.0239 318.061 40.038L267.069 40.9027C266.24 40.9168 265.557 40.2567 265.543 39.4284L265.459 34.4291C265.444 33.6008 266.105 32.9179 266.933 32.9039ZM232.234 21.4906L270.229 20.8463C274.647 20.7714 278.288 24.2918 278.363 28.7095C278.382 29.8139 277.502 30.7244 276.398 30.7431L270.898 30.8364C270.622 30.841 270.395 30.621 270.39 30.3449C270.376 29.5166 269.693 28.8565 268.865 28.8706L233.87 29.464C233.041 29.4781 232.381 30.161 232.395 30.9893C232.4 31.2654 232.18 31.493 231.904 31.4977L226.405 31.5909C225.3 31.6097 224.39 30.7295 224.371 29.6251L224.375 29.2129C224.518 24.9831 227.955 21.5632 232.234 21.4906Z" fill="#904EB1" style="fill:#904EB1;fill:color(display-p3 0.5630 0.3043 0.6924);fill-opacity:1;"/>
<path d="M226.608 43.5892L232.107 43.4959C232.384 43.4913 232.611 43.7113 232.616 43.9874C232.63 44.8157 233.313 45.4758 234.141 45.4617L269.136 44.8683C269.964 44.8542 270.624 44.1713 270.61 43.343C270.606 43.0669 270.826 42.8393 271.102 42.8346L276.601 42.7414C277.705 42.7226 278.616 43.6028 278.635 44.7072C278.71 49.1248 275.189 52.7668 270.772 52.8417L232.777 53.486C228.359 53.5609 224.717 50.0405 224.642 45.6228C224.624 44.5184 225.504 43.6079 226.608 43.5892ZM266.933 32.9039L317.926 32.0391C318.754 32.0251 319.437 32.6852 319.451 33.5135L319.536 38.5127C319.55 39.3411 318.89 40.0239 318.061 40.038L267.069 40.9027C266.24 40.9168 265.557 40.2567 265.543 39.4284L265.459 34.4291C265.444 33.6008 266.105 32.9179 266.933 32.9039ZM232.234 21.4906L270.229 20.8463C274.647 20.7714 278.288 24.2918 278.363 28.7095C278.382 29.8139 277.502 30.7244 276.398 30.7431L270.898 30.8364C270.622 30.841 270.395 30.621 270.39 30.3449C270.376 29.5166 269.693 28.8565 268.865 28.8706L233.87 29.464C233.041 29.4781 232.381 30.161 232.395 30.9893C232.4 31.2654 232.18 31.493 231.904 31.4977L226.405 31.5909C225.3 31.6097 224.39 30.7295 224.371 29.6251L224.375 29.2129C224.518 24.9831 227.955 21.5632 232.234 21.4906Z" fill="url(#paint9_linear_1_41)" fill-opacity="0.2"/>
<path d="M226.608 43.5892L232.107 43.4959C232.384 43.4913 232.611 43.7113 232.616 43.9874C232.63 44.8157 233.313 45.4758 234.141 45.4617L269.136 44.8683C269.964 44.8542 270.624 44.1713 270.61 43.343C270.606 43.0669 270.826 42.8393 271.102 42.8346L276.601 42.7414C277.705 42.7226 278.616 43.6028 278.635 44.7072C278.71 49.1248 275.189 52.7668 270.772 52.8417L232.777 53.486C228.359 53.5609 224.717 50.0405 224.642 45.6228C224.624 44.5184 225.504 43.6079 226.608 43.5892ZM266.933 32.9039L317.926 32.0391C318.754 32.0251 319.437 32.6852 319.451 33.5135L319.536 38.5127C319.55 39.3411 318.89 40.0239 318.061 40.038L267.069 40.9027C266.24 40.9168 265.557 40.2567 265.543 39.4284L265.459 34.4291C265.444 33.6008 266.105 32.9179 266.933 32.9039ZM232.234 21.4906L270.229 20.8463C274.647 20.7714 278.288 24.2918 278.363 28.7095C278.382 29.8139 277.502 30.7244 276.398 30.7431L270.898 30.8364C270.622 30.841 270.395 30.621 270.39 30.3449C270.376 29.5166 269.693 28.8565 268.865 28.8706L233.87 29.464C233.041 29.4781 232.381 30.161 232.395 30.9893C232.4 31.2654 232.18 31.493 231.904 31.4977L226.405 31.5909C225.3 31.6097 224.39 30.7295 224.371 29.6251L224.375 29.2129C224.518 24.9831 227.955 21.5632 232.234 21.4906Z" fill="url(#paint10_linear_1_41)" fill-opacity="0.2"/>
<path d="M226.608 43.5892L232.107 43.4959C232.384 43.4913 232.611 43.7113 232.616 43.9874C232.63 44.8157 233.313 45.4758 234.141 45.4617L269.136 44.8683C269.964 44.8542 270.624 44.1713 270.61 43.343C270.606 43.0669 270.826 42.8393 271.102 42.8346L276.601 42.7414C277.705 42.7226 278.616 43.6028 278.635 44.7072C278.71 49.1248 275.189 52.7668 270.772 52.8417L232.777 53.486C228.359 53.5609 224.717 50.0405 224.642 45.6228C224.624 44.5184 225.504 43.6079 226.608 43.5892ZM266.933 32.9039L317.926 32.0391C318.754 32.0251 319.437 32.6852 319.451 33.5135L319.536 38.5127C319.55 39.3411 318.89 40.0239 318.061 40.038L267.069 40.9027C266.24 40.9168 265.557 40.2567 265.543 39.4284L265.459 34.4291C265.444 33.6008 266.105 32.9179 266.933 32.9039ZM232.234 21.4906L270.229 20.8463C274.647 20.7714 278.288 24.2918 278.363 28.7095C278.382 29.8139 277.502 30.7244 276.398 30.7431L270.898 30.8364C270.622 30.841 270.395 30.621 270.39 30.3449C270.376 29.5166 269.693 28.8565 268.865 28.8706L233.87 29.464C233.041 29.4781 232.381 30.161 232.395 30.9893C232.4 31.2654 232.18 31.493 231.904 31.4977L226.405 31.5909C225.3 31.6097 224.39 30.7295 224.371 29.6251L224.375 29.2129C224.518 24.9831 227.955 21.5632 232.234 21.4906Z" stroke="url(#paint11_linear_1_41)"/>
</g>
<defs>
<filter id="filter0_ddi_1_41" x="-43.3186" y="1.14441e-05" width="385.054" height="80.0645" filterUnits="userSpaceOnUse" color-interpolation-filters="sRGB">
<feFlood flood-opacity="0" result="BackgroundImageFix"/>
<feColorMatrix in="SourceAlpha" type="matrix" values="0 0 0 0 0 0 0 0 0 0 0 0 0 0 0 0 0 0 127 0" result="hardAlpha"/>
<feOffset dy="4"/>
<feGaussianBlur stdDeviation="2"/>
<feComposite in2="hardAlpha" operator="out"/>
<feColorMatrix type="matrix" values="0 0 0 0 0 0 0 0 0 0 0 0 0 0 0 0 0 0 0.25 0"/>
<feBlend mode="normal" in2="BackgroundImageFix" result="effect1_dropShadow_1_41"/>
<feColorMatrix in="SourceAlpha" type="matrix" values="0 0 0 0 0 0 0 0 0 0 0 0 0 0 0 0 0 0 127 0" result="hardAlpha"/>
<feOffset dy="4"/>
<feGaussianBlur stdDeviation="10.85"/>
<feComposite in2="hardAlpha" operator="out"/>
<feColorMatrix type="matrix" values="0 0 0 0 0 0 0 0 0 0 0 0 0 0 0 0 0 0 0.08 0"/>
<feBlend mode="normal" in2="effect1_dropShadow_1_41" result="effect2_dropShadow_1_41"/>
<feBlend mode="normal" in="SourceGraphic" in2="effect2_dropShadow_1_41" result="shape"/>
<feColorMatrix in="SourceAlpha" type="matrix" values="0 0 0 0 0 0 0 0 0 0 0 0 0 0 0 0 0 0 127 0" result="hardAlpha"/>
<feOffset dy="4"/>
<feGaussianBlur stdDeviation="2.4"/>
<feComposite in2="hardAlpha" operator="arithmetic" k2="-1" k3="1"/>
<feColorMatrix type="matrix" values="0 0 0 0 1 0 0 0 0 1 0 0 0 0 1 0 0 0 0.06 0"/>
<feBlend mode="normal" in2="shape" result="effect3_innerShadow_1_41"/>
</filter>
<linearGradient id="paint0_linear_1_41" x1="27.4654" y1="19.5239" x2="25.9493" y2="52.489" gradientUnits="userSpaceOnUse">
<stop stop-color="#270A2E" stop-opacity="0" style="stop-color:none;stop-opacity:0;"/>
<stop offset="1" stop-color="#2D0336" style="stop-color:#2D0336;stop-color:color(display-p3 0.1770 0.0126 0.2099);stop-opacity:1;"/>
</linearGradient>
<linearGradient id="paint1_linear_1_41" x1="27.4654" y1="19.5239" x2="25.9493" y2="52.489" gradientUnits="userSpaceOnUse">
<stop stop-color="#DBB9E9" style="stop-color:#DBB9E9;stop-color:color(display-p3 0.8569 0.7235 0.9140);stop-opacity:1;"/>
<stop offset="1" stop-color="#813088" stop-opacity="0" style="stop-color:none;stop-opacity:0;"/>
</linearGradient>
<linearGradient id="paint2_linear_1_41" x1="-20.0795" y1="15.9889" x2="52.2251" y2="42.9985" gradientUnits="userSpaceOnUse">
<stop stop-color="#D2A9E6" stop-opacity="0.35" style="stop-color:#D2A9E6;stop-color:color(display-p3 0.8216 0.6645 0.9002);stop-opacity:0.35;"/>
<stop offset="0.547903" stop-color="#CB97E0" stop-opacity="0.065" style="stop-color:#CB97E0;stop-color:color(display-p3 0.7966 0.5906 0.8781);stop-opacity:0.065;"/>
<stop offset="1" stop-color="white" stop-opacity="0" style="stop-color:none;stop-opacity:0;"/>
</linearGradient>
<linearGradient id="paint3_linear_1_41" x1="190.448" y1="20.3246" x2="189.552" y2="53.3125" gradientUnits="userSpaceOnUse">
<stop stop-color="#270A2E" stop-opacity="0" style="stop-color:none;stop-opacity:0;"/>
<stop offset="1" stop-color="#2D0336" style="stop-color:#2D0336;stop-color:color(display-p3 0.1770 0.0126 0.2099);stop-opacity:1;"/>
</linearGradient>
<linearGradient id="paint4_linear_1_41" x1="190.448" y1="20.3246" x2="189.552" y2="53.3125" gradientUnits="userSpaceOnUse">
<stop stop-color="#DBB9E9" style="stop-color:#DBB9E9;stop-color:color(display-p3 0.8569 0.7235 0.9140);stop-opacity:1;"/>
<stop offset="1" stop-color="#813088" stop-opacity="0" style="stop-color:none;stop-opacity:0;"/>
</linearGradient>
<linearGradient id="paint5_linear_1_41" x1="142.845" y1="17.6846" x2="215.645" y2="43.3294" gradientUnits="userSpaceOnUse">
<stop stop-color="#D2A9E6" stop-opacity="0.35" style="stop-color:#D2A9E6;stop-color:color(display-p3 0.8216 0.6645 0.9002);stop-opacity:0.35;"/>
<stop offset="0.547903" stop-color="#CB97E0" stop-opacity="0.065" style="stop-color:#CB97E0;stop-color:color(display-p3 0.7966 0.5906 0.8781);stop-opacity:0.065;"/>
<stop offset="1" stop-color="white" stop-opacity="0" style="stop-color:none;stop-opacity:0;"/>
</linearGradient>
<linearGradient id="paint6_linear_1_41" x1="107.562" y1="20.3243" x2="108.438" y2="53.3127" gradientUnits="userSpaceOnUse">
<stop stop-color="#270A2E" stop-opacity="0" style="stop-color:none;stop-opacity:0;"/>
<stop offset="1" stop-color="#2D0336" style="stop-color:#2D0336;stop-color:color(display-p3 0.1770 0.0126 0.2099);stop-opacity:1;"/>
</linearGradient>
<linearGradient id="paint7_linear_1_41" x1="107.562" y1="20.3243" x2="108.438" y2="53.3127" gradientUnits="userSpaceOnUse">
<stop stop-color="#DBB9E9" style="stop-color:#DBB9E9;stop-color:color(display-p3 0.8569 0.7235 0.9140);stop-opacity:1;"/>
<stop offset="1" stop-color="#813088" stop-opacity="0" style="stop-color:none;stop-opacity:0;"/>
</linearGradient>
<linearGradient id="paint8_linear_1_41" x1="59.8858" y1="20.2432" x2="133.957" y2="41.9435" gradientUnits="userSpaceOnUse">
<stop stop-color="#D2A9E6" stop-opacity="0.35" style="stop-color:#D2A9E6;stop-color:color(display-p3 0.8216 0.6645 0.9002);stop-opacity:0.35;"/>
<stop offset="0.547903" stop-color="#CB97E0" stop-opacity="0.065" style="stop-color:#CB97E0;stop-color:color(display-p3 0.7966 0.5906 0.8781);stop-opacity:0.065;"/>
<stop offset="1" stop-color="white" stop-opacity="0" style="stop-color:none;stop-opacity:0;"/>
</linearGradient>
<linearGradient id="paint9_linear_1_41" x1="271.72" y1="20.3209" x2="272.28" y2="53.3162" gradientUnits="userSpaceOnUse">
<stop stop-color="#270A2E" stop-opacity="0" style="stop-color:none;stop-opacity:0;"/>
<stop offset="1" stop-color="#2D0336" style="stop-color:#2D0336;stop-color:color(display-p3 0.1770 0.0126 0.2099);stop-opacity:1;"/>
</linearGradient>
<linearGradient id="paint10_linear_1_41" x1="271.72" y1="20.3209" x2="272.28" y2="53.3162" gradientUnits="userSpaceOnUse">
<stop stop-color="#DBB9E9" style="stop-color:#DBB9E9;stop-color:color(display-p3 0.8569 0.7235 0.9140);stop-opacity:1;"/>
<stop offset="1" stop-color="#813088" stop-opacity="0" style="stop-color:none;stop-opacity:0;"/>
</linearGradient>
<linearGradient id="paint11_linear_1_41" x1="224.047" y1="19.7823" x2="297.907" y2="42.1923" gradientUnits="userSpaceOnUse">
<stop stop-color="#D2A9E6" stop-opacity="0.35" style="stop-color:#D2A9E6;stop-color:color(display-p3 0.8216 0.6645 0.9002);stop-opacity:0.35;"/>
<stop offset="0.547903" stop-color="#CB97E0" stop-opacity="0.065" style="stop-color:#CB97E0;stop-color:color(display-p3 0.7966 0.5906 0.8781);stop-opacity:0.065;"/>
<stop offset="1" stop-color="white" stop-opacity="0" style="stop-color:none;stop-opacity:0;"/>
</linearGradient>
</defs>
</svg>
